<?xml version="1.0" encoding="UTF-8" standalone="no"?> <svg width="64" height="64" viewBox="0 0 64 64" fill="none" xmlns="http://www.w3.org/2000/svg">
<path d="M60 59.0001H59V40.4201C59 39.8397 58.8857 39.2649 58.6635 38.7286C58.4414 38.1924 58.1158 37.7051 57.7054 37.2947C57.295 36.8843 56.8077 36.5587 56.2715 36.3366C55.7352 36.1144 55.1604 36.0001 54.58 36.0001H48V15.4201C48 14.2478 47.5343 13.1236 46.7054 12.2947C45.8765 11.4658 44.7523 11.0001 43.58 11.0001H40.94C40.6855 8.80752 39.6342 6.78491 37.9859 5.31683C36.3376 3.84875 34.2073 3.0376 32 3.0376C29.7927 3.0376 27.6624 3.84875 26.0141 5.31683C24.3658 6.78491 23.3145 8.80752 23.06 11.0001H20.42C19.2477 11.0001 18.1235 11.4658 17.2946 12.2947C16.4657 13.1236 16 14.2478 16 15.4201V36.0001H9.42C8.83956 36.0001 8.2648 36.1144 7.72854 36.3366C7.19228 36.5587 6.70502 36.8843 6.29459 37.2947C5.88415 37.7051 5.55858 38.1924 5.33645 38.7286C5.11433 39.2649 5 39.8397 5 40.4201V59.0001H4C3.73478 59.0001 3.48043 59.1055 3.29289 59.293C3.10536 59.4805 3 59.7349 3 60.0001C3 60.2653 3.10536 60.5197 3.29289 60.7072C3.48043 60.8947 3.73478 61.0001 4 61.0001H60C60.2652 61.0001 60.5196 60.8947 60.7071 60.7072C60.8946 60.5197 61 60.2653 61 60.0001C61 59.7349 60.8946 59.4805 60.7071 59.293C60.5196 59.1055 60.2652 59.0001 60 59.0001ZM32 5.0001C33.3845 5.0001 34.7378 5.41064 35.889 6.17981C37.0401 6.94898 37.9373 8.04223 38.4672 9.32132C38.997 10.6004 39.1356 12.0079 38.8655 13.3657C38.5954 14.7236 37.9287 15.9709 36.9497 16.9498C35.9708 17.9288 34.7235 18.5955 33.3656 18.8656C32.0078 19.1357 30.6003 18.9971 29.3212 18.4673C28.0421 17.9374 26.9489 17.0402 26.1797 15.8891C25.4105 14.7379 25 13.3846 25 12.0001C25 10.1436 25.7375 8.36311 27.0503 7.05035C28.363 5.7376 30.1435 5.0001 32 5.0001V5.0001ZM7 40.4201C7 39.7783 7.25496 39.1627 7.7088 38.7089C8.16264 38.2551 8.77818 38.0001 9.42 38.0001H16V59.0001H7V40.4201ZM18 37.0001V15.4201C18 14.7783 18.255 14.1627 18.7088 13.7089C19.1626 13.2551 19.7782 13.0001 20.42 13.0001H23.06C23.3145 15.1927 24.3658 17.2153 26.0141 18.6834C27.6624 20.1514 29.7927 20.9626 32 20.9626C34.2073 20.9626 36.3376 20.1514 37.9859 18.6834C39.6342 17.2153 40.6855 15.1927 40.94 13.0001H43.58C44.2218 13.0001 44.8374 13.2551 45.2912 13.7089C45.745 14.1627 46 14.7783 46 15.4201V59.0001H38V49.0001C38 48.7349 37.8946 48.4805 37.7071 48.293C37.5196 48.1055 37.2652 48.0001 37 48.0001H27C26.7348 48.0001 26.4804 48.1055 26.2929 48.293C26.1054 48.4805 26 48.7349 26 49.0001V59.0001H18V37.0001ZM28 59.0001V50.0001H36V59.0001H28ZM48 59.0001V38.0001H54.58C55.2218 38.0001 55.8374 38.2551 56.2912 38.7089C56.745 39.1627 57 39.7783 57 40.4201V59.0001H48Z" fill="black"/>
<path d="M28.5001 13.0001H31.0001V16.6701C31.0001 16.9353 31.1054 17.1896 31.293 17.3772C31.4805 17.5647 31.7349 17.6701 32.0001 17.6701C32.2653 17.6701 32.5196 17.5647 32.7072 17.3772C32.8947 17.1896 33.0001 16.9353 33.0001 16.6701V13.0001H36.6701C36.9353 13.0001 37.1896 12.8947 37.3772 12.7072C37.5647 12.5196 37.6701 12.2653 37.6701 12.0001C37.6701 11.7349 37.5647 11.4805 37.3772 11.293C37.1896 11.1054 36.9353 11.0001 36.6701 11.0001H33.0001V7.33008C33.0001 7.06486 32.8947 6.81051 32.7072 6.62297C32.5196 6.43544 32.2653 6.33008 32.0001 6.33008C31.7349 6.33008 31.4805 6.43544 31.293 6.62297C31.1054 6.81051 31.0001 7.06486 31.0001 7.33008V11.0001H27.3301C27.0649 11.0001 26.8105 11.1054 26.623 11.293C26.4354 11.4805 26.3301 11.7349 26.3301 12.0001C26.3301 12.2653 26.4354 12.5196 26.623 12.7072C26.8105 12.8947 27.0649 13.0001 27.3301 13.0001H28.5001Z" fill="black"/>
<path d="M23 29H28C28.2652 29 28.5196 28.8946 28.7071 28.7071C28.8946 28.5196 29 28.2652 29 28V24C29 23.7348 28.8946 23.4804 28.7071 23.2929C28.5196 23.1054 28.2652 23 28 23H23C22.7348 23 22.4804 23.1054 22.2929 23.2929C22.1054 23.4804 22 23.7348 22 24V28C22 28.2652 22.1054 28.5196 22.2929 28.7071C22.4804 28.8946 22.7348 29 23 29ZM24 25H27V27H24V25Z" fill="black"/>
<path d="M36 29H41C41.2652 29 41.5196 28.8946 41.7071 28.7071C41.8946 28.5196 42 28.2652 42 28V24C42 23.7348 41.8946 23.4804 41.7071 23.2929C41.5196 23.1054 41.2652 23 41 23H36C35.7348 23 35.4804 23.1054 35.2929 23.2929C35.1054 23.4804 35 23.7348 35 24V28C35 28.2652 35.1054 28.5196 35.2929 28.7071C35.4804 28.8946 35.7348 29 36 29ZM37 25H40V27H37V25Z" fill="black"/>
<path d="M23 37H28C28.2652 37 28.5196 36.8946 28.7071 36.7071C28.8946 36.5196 29 36.2652 29 36V32C29 31.7348 28.8946 31.4804 28.7071 31.2929C28.5196 31.1054 28.2652 31 28 31H23C22.7348 31 22.4804 31.1054 22.2929 31.2929C22.1054 31.4804 22 31.7348 22 32V36C22 36.2652 22.1054 36.5196 22.2929 36.7071C22.4804 36.8946 22.7348 37 23 37ZM24 33H27V35H24V33Z" fill="black"/>
<path d="M36 37H41C41.2652 37 41.5196 36.8946 41.7071 36.7071C41.8946 36.5196 42 36.2652 42 36V32C42 31.7348 41.8946 31.4804 41.7071 31.2929C41.5196 31.1054 41.2652 31 41 31H36C35.7348 31 35.4804 31.1054 35.2929 31.2929C35.1054 31.4804 35 31.7348 35 32V36C35 36.2652 35.1054 36.5196 35.2929 36.7071C35.4804 36.8946 35.7348 37 36 37ZM37 33H40V35H37V33Z" fill="black"/>
<path d="M28 45C28.2652 45 28.5196 44.8946 28.7071 44.7071C28.8946 44.5196 29 44.2652 29 44V40C29 39.7348 28.8946 39.4804 28.7071 39.2929C28.5196 39.1054 28.2652 39 28 39H23C22.7348 39 22.4804 39.1054 22.2929 39.2929C22.1054 39.4804 22 39.7348 22 40V44C22 44.2652 22.1054 44.5196 22.2929 44.7071C22.4804 44.8946 22.7348 45 23 45H28ZM24 41H27V43H24V41Z" fill="black"/>
<path d="M36 45H41C41.2652 45 41.5196 44.8946 41.7071 44.7071C41.8946 44.5196 42 44.2652 42 44V40C42 39.7348 41.8946 39.4804 41.7071 39.2929C41.5196 39.1054 41.2652 39 41 39H36C35.7348 39 35.4804 39.1054 35.2929 39.2929C35.1054 39.4804 35 39.7348 35 40V44C35 44.2652 35.1054 44.5196 35.2929 44.7071C35.4804 44.8946 35.7348 45 36 45ZM37 41H40V43H37V41Z" fill="black"/>
</svg>
