<?xml version="1.0" encoding="UTF-8" standalone="no"?>
<!-- Created with Inkscape (http://www.inkscape.org/) -->

<svg
   xmlns:dc="http://purl.org/dc/elements/1.1/"
   xmlns:cc="http://creativecommons.org/ns#"
   xmlns:rdf="http://www.w3.org/1999/02/22-rdf-syntax-ns#"
   xmlns:svg="http://www.w3.org/2000/svg"
   xmlns="http://www.w3.org/2000/svg"
   xmlns:sodipodi="http://sodipodi.sourceforge.net/DTD/sodipodi-0.dtd"
   xmlns:inkscape="http://www.inkscape.org/namespaces/inkscape"
   width="64"
   height="64"
   viewBox="0 0 16.933333 16.933333"
   version="1.1"
   id="svg8"
   inkscape:version="0.92.3 (2405546, 2018-03-11)"
   sodipodi:docname="20-Doctor.svg">
  <defs
     id="defs2" />
  <sodipodi:namedview
     id="base"
     pagecolor="#ffffff"
     bordercolor="#666666"
     borderopacity="1.0"
     inkscape:pageopacity="0.0"
     inkscape:pageshadow="2"
     inkscape:zoom="11.313709"
     inkscape:cx="21.400054"
     inkscape:cy="33.353785"
     inkscape:document-units="px"
     inkscape:current-layer="layer2"
     showgrid="false"
     inkscape:snap-smooth-nodes="true"
     inkscape:snap-page="true"
     inkscape:snap-midpoints="false"
     inkscape:snap-intersection-paths="true"
     inkscape:object-paths="true"
     inkscape:object-nodes="true"
     units="px"
     inkscape:snap-bbox="true"
     inkscape:bbox-paths="false"
     inkscape:snap-bbox-midpoints="false"
     inkscape:window-width="1920"
     inkscape:window-height="1040"
     inkscape:window-x="0"
     inkscape:window-y="0"
     inkscape:window-maximized="1"
     inkscape:snap-grids="true"
     inkscape:snap-to-guides="false"
     inkscape:snap-bbox-edge-midpoints="false"
     inkscape:snap-nodes="true"
     inkscape:snap-others="false"
     inkscape:bbox-nodes="true"
     showguides="true"
     inkscape:guide-bbox="true"
     inkscape:measure-start="0,0"
     inkscape:measure-end="0,0"
     inkscape:snap-global="true">
    <inkscape:grid
       type="xygrid"
       id="grid815"
       enabled="true" />
  </sodipodi:namedview>
  <metadata
     id="metadata5">
    <rdf:RDF>
      <cc:Work
         rdf:about="">
        <dc:format>image/svg+xml</dc:format>
        <dc:type
           rdf:resource="http://purl.org/dc/dcmitype/StillImage" />
        <dc:title />
      </cc:Work>
    </rdf:RDF>
  </metadata>
  <g
     inkscape:groupmode="layer"
     id="layer2"
     inkscape:label="20-Doctor">
    <path
       style="color:#000000;font-style:normal;font-variant:normal;font-weight:normal;font-stretch:normal;font-size:medium;line-height:normal;font-family:sans-serif;font-variant-ligatures:normal;font-variant-position:normal;font-variant-caps:normal;font-variant-numeric:normal;font-variant-alternates:normal;font-feature-settings:normal;text-indent:0;text-align:start;text-decoration:none;text-decoration-line:none;text-decoration-style:solid;text-decoration-color:#000000;letter-spacing:normal;word-spacing:normal;text-transform:none;writing-mode:lr-tb;direction:ltr;text-orientation:mixed;dominant-baseline:auto;baseline-shift:baseline;text-anchor:start;white-space:normal;shape-padding:0;clip-rule:nonzero;display:inline;overflow:visible;visibility:visible;opacity:1;isolation:auto;mix-blend-mode:normal;color-interpolation:sRGB;color-interpolation-filters:linearRGB;solid-color:#000000;solid-opacity:1;vector-effect:none;fill:#000000;fill-opacity:1;fill-rule:nonzero;stroke:none;stroke-width:0.5291667;stroke-linecap:round;stroke-linejoin:round;stroke-miterlimit:4;stroke-dasharray:none;stroke-dashoffset:0;stroke-opacity:1;paint-order:stroke fill markers;color-rendering:auto;image-rendering:auto;shape-rendering:auto;text-rendering:auto;enable-background:accumulate"
       d="m 4.3144971,4.1289522 c 0,0.30788 0.0348,0.6160061 0.1033502,0.9162219 l 0.0186,0.0832 c -0.0781,0.1637721 -0.12402,0.3528311 -0.12402,0.5457042 0,0.6936409 0.54152,1.2166697 1.1508298,1.2123158 0.1307901,0.378652 0.32782,0.7262301 0.57825,1.0257781 -0.83439,0.3824 -1.5107499,1.0538508 -1.9140799,1.8768878 -1.72278,0.575845 -2.8744601,2.001226 -3.0318401,3.670073 l -0.30074994,3.185322 c -0.0143,0.155292 0.10812,0.289209 0.26405994,0.288872 H 15.874946 c 0.15575,3.2e-5 0.27783,-0.133785 0.26355,-0.288872 l -0.30075,-3.185322 c -0.15737,-1.66874 -1.31414,-3.09708 -3.03236,-3.670061 -0.40737,-0.8331877 -1.07891,-1.4949617 -1.91304,-1.8774047 0.17746,-0.2098831 0.42402,-0.5661361 0.57593,-1.024731 0.65003,0 1.15263,-0.556264 1.15263,-1.212846 0,-0.1926802 -0.0456,-0.3805042 -0.12351,-0.5441529 l 0.0181,-0.0832 c 0.0688,-0.3006971 0.10387,-0.609373 0.10387,-0.9177732 C 12.619366,1.8505413 10.760196,5.3632906e-6 8.466672,5.3632906e-6 6.173147,4.3632906e-6 4.3144971,1.8505403 4.3144971,4.1289522 Z m 7.7751789,0 c 0,0.1691392 -0.0117,0.333161 -0.0354,0.500493 -0.12147,-0.07552 -0.26036,-0.1295749 -0.40591,-0.1533898 V 4.1873463 c 5.55e-4,-0.1469282 -0.11869,-0.2661769 -0.26562,-0.2656171 h -0.52916 c -0.732719,0 -1.3277488,-0.6028078 -1.3358289,-1.3632239 -0.00201,-0.149242 -0.12631,-0.267598 -0.27543,-0.261483 -0.12622,0.0055 -0.2309701,0.09939 -0.25011,0.224276 -0.12104,0.807755 -0.7944401,1.4004309 -1.58594,1.4004309 H 5.549037 C 5.4027172,3.9220203 5.2844172,4.0410254 5.2849673,4.1873463 v 0.288354 c -0.1452602,0.023839 -0.2849102,0.07761 -0.4061701,0.152963 -0.0239,-0.1672949 -0.0351,-0.3304211 -0.0351,-0.4997111 0,-1.9907289 1.6289301,-3.59978085 3.62299,-3.59978085 1.9940598,0 3.6229888,1.60905195 3.6229888,3.59978085 z m -0.97048,0.3224602 v 1.359091 c 0,0.04223 -0.004,0.08333 -0.006,0.1250569 H 10.636746 9.4828162 L 8.5510963,5.6249841 c -0.025199,-0.0084 -0.0515,-0.012901 -0.078,-0.013441 -0.0305,-7.408e-4 -0.0609,0.0038 -0.0899,0.013441 L 7.4514764,5.9355603 H 5.8167065 c -0.00201,-0.04173 -0.00201,-0.08282 -0.00201,-0.1250569 v -1.359091 h 1.5916201 c 0.84314,0 1.4820299,-0.490438 1.7998799,-1.0128581 0.2606601,0.51206 0.8420895,1.0128581 1.6474385,1.0128581 z M 5.2849673,5.0198532 v 0.7906502 c 0,0.1813517 0.014301,0.3569038 0.0424,0.5301998 -0.2818601,-0.06594 -0.4857602,-0.3527319 -0.4857602,-0.6666259 1.01e-5,-0.313895 0.19128,-0.57238 0.44338,-0.6542241 z m 6.3633987,0.00101 c 0.25313,0.07771 0.44338,0.3474098 0.44338,0.6531898 0,0.30578 -0.19393,0.5960231 -0.48679,0.6666261 0.0281,-0.173296 0.0434,-0.348848 0.0434,-0.5302001 z M 8.466667,6.1541265 9.3554971,6.4512654 c 0.027,0.0089 0.0553,0.013491 0.0837,0.013441 h 1.6018689 c -0.28814,1.187485 -1.329739,2.0587889 -2.5744088,2.0587889 -1.2446701,0 -2.2889501,-0.8702709 -2.5729501,-2.058789 h 1.60041 c 0.0286,1.061e-4 0.0571,-0.0044 0.0842,-0.013441 z m -1.8515499,2.295467 v 1.0759029 h -1.0604 c -0.2465099,0.012131 -0.4799999,0.038 -0.71209,0.08062 0.3851701,-0.575099 0.94493,-1.035769 1.60041,-1.2908793 0.0543,0.045528 0.1148699,0.092518 0.17208,0.1343564 z M 12.091746,9.607674 c -0.23138,-0.04238 -0.46691,-0.07007 -0.71262,-0.08217 -0.35235,-1.88e-5 -0.70757,0 -1.060899,0 V 8.4485685 c 0.057,-0.04169 0.11745,-0.08849 0.171559,-0.1338419 0.65486,0.2551298 1.21453,0.7146549 1.60196,1.2929444 z M 7.144797,8.7617261 c 0.4027501,0.1878322 0.8492001,0.2909382 1.32187,0.2909382 0.4727202,0 0.9196101,-0.104104 1.3223901,-0.2919722 V 9.5255033 H 7.144797 Z M 6.245627,10.05467 5.7169871,11.11352 c -0.0611,0.122945 -0.018,0.272179 0.0992,0.343649 L 6.849717,12.07832 6.2947173,12.630741 c -0.0656,0.06534 -0.0922,0.160189 -0.0703,0.250114 l 0.8469699,3.523286 H 1.3498071 l 0.2713001,-2.896464 c 0.12302,-1.304439 0.95679,-2.464481 2.2473899,-3.048392 -0.10684,0.369525 -0.16433,0.760416 -0.16433,1.16582 v 0.01654 H 3.4804172 c -0.28303,0 -0.51403,0.115465 -0.67954,0.287837 -0.16552,0.172371 -0.26406,0.392328 -0.31265,0.621151 l -0.4904,2.304766 c -0.0623,0.293404 0.0643,0.562274 0.26768,0.74414 0.1949,0.174263 0.45181,0.275436 0.7244999,0.275436 h 0.2444301 c 0.35379,-0.0079 0.35535,-0.521279 0,-0.529167 H 2.9900071 c -0.1336999,0 -0.2821199,-0.05968 -0.3725899,-0.14056 -0.0751,-0.06713 -0.12021,-0.153571 -0.1018,-0.240295 l 0.49041,-2.302702 c 0.0321,-0.151305 0.0962,-0.282576 0.1757,-0.365352 0.0795,-0.08278 0.17814,-0.127124 0.29869,-0.127124 h 0.9766699 c 0.11909,0 0.2192099,0.04435 0.29869,0.127124 0.0795,0.08278 0.1435801,0.214047 0.1757,0.365352 l 0.4904099,2.302702 c 0.018399,0.08672 -0.022299,0.169192 -0.1018098,0.240295 -0.0905,0.08089 -0.2388801,0.14056 -0.3725801,0.14056 H 4.703067 c -0.3537997,0.0079 -0.3537997,0.521314 0,0.529167 h 0.2444301 c 0.2726901,0 0.5296,-0.101173 0.7245,-0.275436 0.2064099,-0.184557 0.3299701,-0.450736 0.26768,-0.74414 L 5.4492672,12.55063 C 5.4006672,12.321807 5.3021472,12.10185 5.136627,11.929479 4.9711172,11.757107 4.7390871,11.641642 4.4570871,11.641642 H 4.2333372 v -0.01654 c 0,-0.49772 0.1000799,-0.972063 0.27741,-1.399737 0.3355399,-0.09328 0.6907599,-0.15208 1.0692598,-0.170704 z m 0.5922102,0 h 0.0326 l 1.3306599,1.551327 v 4.798144 H 7.6166372 l -0.8433501,-3.50365 0.6898701,-0.689363 c 0.12207,-0.121813 0.0969,-0.325975 -0.0512,-0.414445 l -1.1131,-0.665593 z m 0.7306998,0 H 9.3653171 L 8.466667,11.10369 Z m 2.4944,0 h 0.0331 l 0.538989,1.07642 -1.1136189,0.665593 c -0.1478698,0.08866 -0.17282,0.292789 -0.0507,0.414445 l 0.6872899,0.689363 -0.8407599,3.50365 h -0.58704 v -4.795026 z m 0.625289,0 h 0.66507 c 0.37768,0.01859 0.73375,0.08019 1.06866,0.173117 0.15126,0.364619 0.24689,0.760129 0.2713,1.177705 -0.60742,0.125448 -1.05058,0.659769 -1.05058,1.293462 0,0.727492 0.5887,1.324466 1.32239,1.324466 0.73369,1e-6 1.32188,-0.596973 1.32188,-1.324466 0,-0.640136 -0.45727,-1.176735 -1.0635,-1.296562 -0.017,-0.326117 -0.0721,-0.642867 -0.15916,-0.944129 1.28172,0.58248 2.12367,1.731994 2.24791,3.049427 l 0.27182,2.896451 h -2.76984 l -0.11524,-1.607124 c -0.009,-0.148655 -0.1374,-0.256662 -0.28577,-0.243913 -0.14554,0.01286 -0.25415,0.137122 -0.24132,0.28267 l 0.11265,1.568367 H 9.8624372 l 0.8464588,-3.523286 c 0.0219,-0.08992 -0.005,-0.184773 -0.0703,-0.250114 l -0.554489,-0.552421 1.033009,-0.621151 c 0.11739,-0.0713 0.16071,-0.220575 0.0997,-0.343649 z m 2.27684,1.851555 c 0.43128,0 0.79272,0.351205 0.79272,0.792716 0,0.44151 -0.35844,0.795301 -0.79272,0.795301 -0.43427,-10e-7 -0.79529,-0.353792 -0.79529,-0.795301 0,-0.44151 0.36402,-0.792716 0.79529,-0.792716 z m -5.03e-4,0.529167 c -0.14613,0 -0.26458,0.118457 -0.26458,0.264583 0,0.146125 0.11845,0.264583 0.26458,0.264583 0.14612,0 0.26458,-0.118458 0.26458,-0.264583 0,-0.146126 -0.11846,-0.264583 -0.26458,-0.264583 z"
       id="path2030"
       inkscape:connector-curvature="0"
       sodipodi:nodetypes="sccccccccccccccccccccsccccscccsccccszccccccccccscsccccccccccccccccczccccscccscccccccccccccccccccscsccccsccsccccssccccsccsccccscsccccccccccccccccccccccccccccccccccczcccccccccccccsccczczczssssssssss" />
  </g>
</svg>
