<?xml version="1.0" encoding="UTF-8" standalone="no"?> <svg xmlns="http://www.w3.org/2000/svg" viewBox="0 0 64 64"><g id="Layer_51" data-name="Layer 51"><path d="M31.32,35.49h-20a1,1,0,0,0-1,1v16.4a1,1,0,0,0,1,1H31.32a1,1,0,0,0,1-1V36.49A1,1,0,0,0,31.32,35.49Zm-1,16.4h-18V37.49H30.32Z"/><path d="M61,25.42a1,1,0,0,0-.18-.55l-6-8.35A1,1,0,0,0,54,16.1H43.14V6.21A3.21,3.21,0,0,0,39.93,3H24.07a3.21,3.21,0,0,0-3.21,3.21V16.1H10a1,1,0,0,0-.81.42l-6,8.35a1.08,1.08,0,0,0-.19.58v6a2.94,2.94,0,0,0,2.63,2.91V60a1,1,0,0,0,1,1H57.37a1,1,0,0,0,1-1V34.36A2.94,2.94,0,0,0,61,31.45C61,31.4,61,25.46,61,25.42ZM24.07,5H39.93a1.21,1.21,0,0,1,1.21,1.21V19.49a1.21,1.21,0,0,1-1.21,1.21H24.07a1.21,1.21,0,0,1-1.21-1.21V6.21A1.21,1.21,0,0,1,24.07,5ZM10.51,18.1H20.86v1.39a3.21,3.21,0,0,0,3.21,3.21H39.93a3.21,3.21,0,0,0,3.21-3.21V18.1H53.49l4.56,6.35H6ZM52.78,31.45a.94.94,0,0,1-.94.94H49.49a.94.94,0,0,1-.93-.94v-5h4.22Zm-6.22,0a1,1,0,0,1-.94.94H43.27a.94.94,0,0,1-.94-.94v-5h4.23Zm-6.23,0a.94.94,0,0,1-.94.94H37.05a.94.94,0,0,1-.94-.94v-5h4.22Zm-6.22,0a.94.94,0,0,1-.94.94H30.83a.94.94,0,0,1-.94-.94v-5h4.22Zm-6.22,0a.94.94,0,0,1-.94.94H24.6a.94.94,0,0,1-.93-.94v-5h4.22Zm-6.22,0a.94.94,0,0,1-.94.94H18.38a1,1,0,0,1-.94-.94v-5h4.23Zm-6.23,0a.94.94,0,0,1-.93.94H12.16a.94.94,0,0,1-.94-.94v-5h4.22ZM5,31.45v-5H9.22v5a.94.94,0,0,1-.94.94H5.94A.94.94,0,0,1,5,31.45ZM37.07,59V37.49H51V59ZM53,59V36.49a1,1,0,0,0-1-1H36.07a1,1,0,0,0-1,1V59H7.63V34.39a3.39,3.39,0,0,0,2.59-.75c.93,1,3,.71,4.29.75a2.89,2.89,0,0,0,1.93-.75c.93,1,3,.71,4.29.75a2.93,2.93,0,0,0,1.94-.75c.92,1,3,.71,4.28.75a2.91,2.91,0,0,0,1.94-.75c.92,1,3.05.71,4.28.75a2.91,2.91,0,0,0,1.94-.75c.92,1,3,.71,4.28.75a2.91,2.91,0,0,0,1.94-.75c.93,1,3.05.71,4.29.75a2.93,2.93,0,0,0,1.94-.75c.92,1,3,.71,4.28.75a2.93,2.93,0,0,0,1.94-.75,3.39,3.39,0,0,0,2.59.75V59Zm6-27.55a.94.94,0,0,1-.94.94H55.72a.94.94,0,0,1-.94-.94v-5H59Z"/><path d="M28.09,13.81H31v2.91a1,1,0,0,0,2,0V13.81h2.91a1,1,0,0,0,0-2H33V8.9a1,1,0,1,0-2,0v2.91H28.09A1,1,0,0,0,28.09,13.81Z"/></g></svg>