<?xml version="1.0" encoding="UTF-8" standalone="no"?> <svg id="Capa_1" enable-background="new 0 0 495.831 495.831" height="512" viewBox="0 0 495.831 495.831" width="512" xmlns="http://www.w3.org/2000/svg"><g><path d="m354.359 56.203c23.99 0 43.439 19.448 43.439 43.439v347.292c0 23.99-19.448 43.439-43.439 43.439h-310.92c-23.991 0-43.439-19.449-43.439-43.439v-347.292c0-23.99 19.448-43.439 43.439-43.439z" fill="#a6e7f0"/><path d="m96.797 56.203v16.207c0 22.617 18.4 41.017 41.017 41.017h122.169c22.617 0 41.017-18.4 41.017-41.017v-16.207z" fill="#6bd9e7"/><path d="m397.798 157.246c-.929.395-1.856.801-2.776 1.23l-12.583 5.872-12.582-5.872c-11.338-5.291-23.407-7.974-35.873-7.974-29.066 0-55.791 14.597-71.487 39.046-11.506 17.923-15.844 39.352-12.215 60.338s14.911 39.714 31.767 52.732l82.195 63.481c5.184 4.003 11.645 6.208 18.195 6.208 5.406 0 10.741-1.523 15.358-4.3v-210.761z" fill="#6bd9e7"/><path d="m354.359 86.203c7.41 0 13.438 6.028 13.438 13.438v347.292c0 7.41-6.028 13.438-13.438 13.438h-310.92c-7.41 0-13.438-6.028-13.438-13.438v-347.291c0-7.41 6.028-13.438 13.438-13.438h310.92z" fill="#f9f7f8"/><path d="m367.798 368.431v-210.883c-10.736-4.676-22.099-7.046-33.813-7.046-29.066 0-55.791 14.597-71.487 39.046-11.506 17.923-15.844 39.352-12.215 60.338s14.911 39.714 31.767 52.732l82.195 63.481c1.125.87 2.32 1.637 3.553 2.332z" fill="#efedef"/><path d="m99.19 86.203c5.678 15.851 20.845 27.224 38.624 27.224h122.169c17.779 0 32.946-11.373 38.624-27.224z" fill="#efedef"/><path d="m259.984 27.763h-11.999c-1.388 0-2.513-1.125-2.513-2.513v-7.401c0-6.843-5.547-12.39-12.39-12.39h-68.365c-6.843 0-12.39 5.547-12.39 12.39v7.401c0 1.388-1.125 2.513-2.513 2.513h-11.999c-11.608 0-21.017 9.41-21.017 21.017v23.63c0 11.608 9.41 21.017 21.017 21.017h122.169c11.608 0 21.017-9.41 21.017-21.017v-23.63c0-11.608-9.41-21.017-21.017-21.017z" fill="#f9f7f8"/><g><g><path d="m222.682 61.101h-47.566c-4.142 0-7.5-3.358-7.5-7.5s3.358-7.5 7.5-7.5h47.566c4.142 0 7.5 3.358 7.5 7.5s-3.358 7.5-7.5 7.5z" fill="#efedef"/></g></g><path d="m485.551 200.353c-17.555-27.345-52.625-37.495-82.071-23.754l-17.077 7.969c-2.512 1.172-5.414 1.172-7.926 0l-17.077-7.969c-29.446-13.742-64.516-3.591-82.071 23.754-11.292 17.589-13.063 38.724-6.412 57.147l6.12 2.703 4.177 9.948-2.532 2.349c3.694 5.306 8.227 10.146 13.593 14.29l82.194 63.481c3.517 2.716 8.423 2.716 11.94 0l82.195-63.481c6.557-5.064 11.886-11.158 15.934-17.885l-1.114-2.796 3.453-8.815 4.258-3.389c5.202-17.539 2.98-37.096-7.584-53.552z" fill="#f37c7c"/><path d="m493.135 253.905h-76.565l-11.6-37.936c-.941-3.076-3.738-5.209-6.953-5.303-3.229-.118-6.133 1.872-7.251 4.888l-22.868 61.64-24.523-68.002c-1.108-3.072-4.071-5.055-7.341-4.95-3.264.125-6.072 2.347-6.942 5.496l-13.21 47.762h-42.966c1.904 5.273 4.506 10.318 7.766 15h40.908c3.372 0 6.33-2.25 7.229-5.501l8.445-30.537 23.479 65.108c1.068 2.962 3.873 4.941 7.021 4.956h.034c3.135 0 5.94-1.95 7.032-4.891l22.283-60.063 6.735 22.027c.964 3.153 3.875 5.307 7.172 5.307h75.518c2.847-4.731 5.047-9.777 6.597-15.001z" fill="#fee45a"/><g><path d="m118.437 205.442h-35.242c-8.556 0-15.516-6.961-15.516-15.517v-38.861c0-8.556 6.96-15.517 15.516-15.517h35.242c8.556 0 15.517 6.961 15.517 15.517v38.861c-.001 8.556-6.962 15.517-15.517 15.517zm-35.242-54.894c-.285 0-.516.232-.516.517v38.861c0 .285.231.517.516.517h35.242c.285 0 .517-.232.517-.517v-38.861c0-.285-.232-.517-.517-.517z" fill="#e5e1e5"/></g><g><path d="m118.437 304.166h-35.242c-8.556 0-15.516-6.961-15.516-15.517v-38.861c0-8.556 6.96-15.516 15.516-15.516h35.242c8.556 0 15.517 6.96 15.517 15.516v38.861c-.001 8.556-6.962 15.517-15.517 15.517zm-35.242-54.894c-.285 0-.516.231-.516.516v38.861c0 .285.231.517.516.517h35.242c.285 0 .517-.232.517-.517v-38.861c0-.285-.232-.516-.517-.516z" fill="#e5e1e5"/></g><g><path d="m118.437 402.89h-35.242c-8.556 0-15.516-6.961-15.516-15.517v-38.861c0-8.556 6.96-15.516 15.516-15.516h35.242c8.556 0 15.517 6.96 15.517 15.516v38.861c-.001 8.556-6.962 15.517-15.517 15.517zm-35.242-54.894c-.285 0-.516.231-.516.516v38.861c0 .285.231.517.516.517h35.242c.285 0 .517-.232.517-.517v-38.861c0-.285-.232-.516-.517-.516z" fill="#e5e1e5"/></g><g><path d="m243.465 154.253h-87.249c-4.142 0-7.5-3.358-7.5-7.5s3.358-7.5 7.5-7.5h87.249c4.142 0 7.5 3.358 7.5 7.5s-3.358 7.5-7.5 7.5z" fill="#e5e1e5"/></g><g><path d="m243.465 202.262h-87.249c-4.142 0-7.5-3.358-7.5-7.5s3.358-7.5 7.5-7.5h87.249c4.142 0 7.5 3.358 7.5 7.5s-3.358 7.5-7.5 7.5z" fill="#e5e1e5"/></g><g><path d="m243.465 252.714h-87.249c-4.142 0-7.5-3.358-7.5-7.5s3.358-7.5 7.5-7.5h87.249c4.142 0 7.5 3.358 7.5 7.5s-3.358 7.5-7.5 7.5z" fill="#e5e1e5"/></g><g><path d="m255.465 300.724h-99.249c-4.142 0-7.5-3.358-7.5-7.5s3.358-7.5 7.5-7.5h99.249c4.142 0 7.5 3.358 7.5 7.5s-3.358 7.5-7.5 7.5z" fill="#e5e1e5"/></g><g><path d="m294.294 351.175h-138.078c-4.142 0-7.5-3.358-7.5-7.5s3.358-7.5 7.5-7.5h138.078c4.142 0 7.5 3.358 7.5 7.5s-3.358 7.5-7.5 7.5z" fill="#e5e1e5"/></g><g><path d="m325.915 399.185h-169.699c-4.142 0-7.5-3.358-7.5-7.5s3.358-7.5 7.5-7.5h169.699c4.142 0 7.5 3.358 7.5 7.5s-3.358 7.5-7.5 7.5z" fill="#e5e1e5"/></g></g></svg>