<?xml version="1.0" encoding="UTF-8" standalone="no"?> <svg id="Line" xmlns="http://www.w3.org/2000/svg" width="512" height="512" viewBox="0 0 512 512">
  <title>vaccine- drug- syringe- medicine- injection</title>
  <path d="M109.61,18.666,90.945,0H68.317L92.64,24.323l-42.3,42.3L61.657,77.933,109.61,29.979A8,8,0,0,0,109.61,18.666Z"/>
  <g>
    <polygon points="0 60.394 60.394 0 37.766 0 0 37.766 0 60.394"/>
    <path d="M24.54,92.422,0,67.882V90.51l18.883,18.883a8,8,0,0,0,11.314,0L45.934,93.657,34.619,82.343Z"/>
  </g>
  <path d="M512,444.118,369.608,301.726a8,8,0,0,0-11.314,0l-1.24,1.24-14.141-8.485,4.068-4.069L335.667,279.1,324.39,290.375l-.037.036-28.284-28.283a7.963,7.963,0,0,0-1.864-1.387L264.789,244.9a8,8,0,0,0-8.2.37L194.2,182.888l32.528-32.528a18.022,18.022,0,0,0,0-25.455l-14.143-14.142a18.033,18.033,0,0,0-21.5-2.992L176,92.687V72H160V96a8,8,0,0,0,2.343,5.657L179.29,118.6,154.6,143.289,99.314,88l52.505-52.5,1.464,1.414A22.11,22.11,0,0,1,160,52.733V56h16V52.733A38.192,38.192,0,0,0,164.4,25.4L138.1,0H115.068l25.24,24.378L24.377,140.309,0,115.069V138.1l25.4,26.3A38.2,38.2,0,0,0,52.733,176H92.687l15.079,15.08a18.024,18.024,0,0,0,3,21.5l14.143,14.144a18.022,18.022,0,0,0,25.455,0L182.887,194.2l62.27,62.269a8,8,0,0,0-1.2,9.773l16.971,28.284a8.05,8.05,0,0,0,1.2,1.541l28.284,28.284L279.1,335.667l11.314,11.313,4.068-4.068,8.486,14.143-1.24,1.239a8,8,0,0,0,0,11.314l92.617,92.617,11.314-11.313L318.7,363.951,363.951,318.7l22.628,22.628-16.972,16.97,11.315,11.314,16.971-16.97,22.627,22.627-16.971,16.971,11.314,11.313,16.97-16.97,22.627,22.627-16.97,16.971,11.315,11.313,16.969-16.97L488.4,443.147l-16.97,16.971,11.314,11.313,16.971-16.97L512,466.745ZM101.657,162.343A8,8,0,0,0,96,160H52.733a22.117,22.117,0,0,1-15.825-6.716l-1.414-1.464L88,99.314,143.289,154.6,118.6,179.289Zm37.39,53.071a2,2,0,0,1-2.828,0l-14.144-14.144a1.965,1.965,0,0,1-.585-1.411,7.962,7.962,0,0,0,4.167-2.2l72-72a7.96,7.96,0,0,0,2.2-4.165,1.986,1.986,0,0,1,1.411.584l14.143,14.142a2,2,0,0,1,0,2.829Zm162.679,97.625-27.587-27.587-13.251-22.084,1.556-1.557,23.142,12.461,27.454,27.453-5.658,5.658Zm12.9,32.353-8.485-14.142,5.9-5.9,19.2-19.2,14.142,8.485Z"/>
  <polygon points="466.746 512 421.657 466.912 410.343 478.225 444.118 512 466.746 512"/>
</svg>
